# xmcd
#
# Track frame offsets:
#	150
#	13711
#	23352
#	38923
#	50824
#	65150
#	78239
#	96197
#	109560
#	126794
#	142645
#	153261
#	165750
#	176174
#	190531
#	223756
#	233195
#	254751
#	265491
#	278954
#	288925
#
# Disc length: 4008 seconds
#
# Revision: 1
# Processed by: cddbd v1.5.2PL0 Copyright (c) Steve Scherf et al.
# Submitted via: audiograbber 1.83.01
#
DISCID=220fa615
DTITLE=Bone Idle - Koffie, Bone ?
DYEAR=1995
DGENRE=Blues
TTITLE0=Pacemaker Blues
TTITLE1=Swere Sjek
TTITLE2=Deep River Blues
TTITLE3=A poor old man
TTITLE4=Stront op 'e dyk
TTITLE5=De Waldpiek
TTITLE6=Cocaine Blues
TTITLE7=Jelle (Goat goet)
TTITLE8=De Boufak
TTITLE9=Jesus on the mainline
TTITLE10=De knokparty
TTITLE11=He Piebe
TTITLE12=De westerling
TTITLE13=Ananas
TTITLE14=The band played Waltzing Mathilda
TTITLE15=Skibbereen
TTITLE16=The Greenland Whale Fisheries
TTITLE17=Kitty
TTITLE18=I Like-a This Music
TTITLE19=The old woman in Belfast
TTITLE20=The parting glass
EXTD=
EXTT0=
EXTT1=
EXTT2=
EXTT3=
EXTT4=
EXTT5=
EXTT6=
EXTT7=
EXTT8=
EXTT9=
EXTT10=
EXTT11=
EXTT12=
EXTT13=
EXTT14=
EXTT15=
EXTT16=
EXTT17=
EXTT18=
EXTT19=
EXTT20=
PLAYORDER=
